<?xml version="1.0" standalone="no"?>
<!DOCTYPE svg PUBLIC "-//W3C//DTD SVG 20010904//EN"
 "http://www.w3.org/TR/2001/REC-SVG-20010904/DTD/svg10.dtd">
<svg version="1.0" xmlns="http://www.w3.org/2000/svg"
 width="450.000000pt" height="450.000000pt" viewBox="0 0 450.000000 450.000000"
 preserveAspectRatio="xMidYMid meet">

<g transform="translate(0.000000,450.000000) scale(0.100000,-0.100000)"
fill="#000000" stroke="none">
<path d="M0 2250 l0 -2250 2250 0 2250 0 0 2250 0 2250 -2250 0 -2250 0 0
-2250z m2630 950 c269 -915 346 -1189 490 -1755 34 -132 63 -241 65 -243 10
-11 36 73 286 933 55 193 175 597 265 898 90 302 164 555 164 563 0 16 -14 15
242 17 182 2 198 1 198 -15 0 -10 -31 -116 -69 -235 -38 -120 -105 -335 -150
-478 -44 -143 -107 -350 -141 -460 -34 -110 -120 -387 -190 -615 -70 -228
-187 -610 -261 -847 l-134 -433 -206 0 -206 0 -36 123 c-20 67 -75 255 -122
417 -48 162 -120 405 -160 540 -41 135 -117 391 -170 570 -53 179 -112 379
-132 445 -60 202 -133 443 -179 591 -24 78 -44 144 -44 147 0 2 19 17 43 32
52 35 230 168 276 207 18 16 37 26 41 21 4 -4 63 -195 130 -423z m-632 190
l-101 -220 -474 0 -473 0 0 -285 0 -285 -57 -26 c-180 -81 -346 -135 -364
-117 -5 5 -10 266 -11 581 l-3 572 792 0 791 0 -100 -220z m152 -1060 c0 -6
-24 -52 -53 -103 -30 -50 -79 -140 -111 -199 l-58 -108 -489 0 -489 0 0 -701
c0 -617 -2 -700 -15 -695 -8 3 -100 6 -205 6 -104 1 -192 5 -194 8 -2 4 -7
330 -11 724 l-8 716 54 27 c101 51 260 168 342 250 l82 83 578 1 c382 1 577
-2 577 -9z"/>
</g>
</svg>
